{
  "accessors": [
    {
      "bufferView": 2,
      "componentType": 5126,
      "count": 3265,
      "max": [
        27.81986427307129,
        7.700918197631836,
        77.86239624023438
      ],
      "min": [
        -27.81985092163086,
        -8.358868598937988,
        -0.06246599927544594
      ],
      "type": "VEC3"
    },
    {
      "bufferView": 2,
      "byteOffset": 39180,
      "componentType": 5126,
      "count": 3265,
      "max": [
        0.9999128580093384,
        0.9998899102210999,
        0.9984017610549927
      ],
      "min": [
        -0.9993272423744202,
        -0.999848484992981,
        -0.9966102242469788
      ],
      "type": "VEC3"
    },
    {
      "bufferView": 1,
      "componentType": 5126,
      "count": 3265,
      "max": [
        0.9985690116882324,
        0.9989190101623535
      ],
      "min": [
        0.0016690000193193555,
        0.0027389999013394117
      ],
      "type": "VEC2"
    },
    {
      "bufferView": 0,
      "componentType": 5125,
      "count": 15045,
      "type": "SCALAR"
    }
  ],
  "asset": {
    "extras": {
      "author": "3axap (https://sketchfab.com/3axapV)",
      "license": "CC-BY-4.0 (http://creativecommons.org/licenses/by/4.0/)",
      "source": "https://sketchfab.com/3d-models/tr-phoenix-3cc4a5938dd744bab678b370d6bb52a3",
      "title": "TR phoenix"
    },
    "generator": "Sketchfab-12.66.0",
    "version": "2.0"
  },
  "bufferViews": [
    {
      "buffer": 0,
      "byteLength": 60180,
      "name": "floatBufferViews",
      "target": 34963
    },
    {
      "buffer": 0,
      "byteLength": 26120,
      "byteOffset": 60180,
      "byteStride": 8,
      "name": "floatBufferViews",
      "target": 34962
    },
    {
      "buffer": 0,
      "byteLength": 78360,
      "byteOffset": 86300,
      "byteStride": 12,
      "name": "floatBufferViews",
      "target": 34962
    }
  ],
  "buffers": [
    {
      "byteLength": 164660,
      "uri": "scene.bin"
    }
  ],
  "images": [
    {
      "uri": "textures/t_phoenix_baseColor.png"
    }
  ],
  "materials": [
    {
      "doubleSided": true,
      "name": "t_phoenix",
      "pbrMetallicRoughness": {
        "baseColorTexture": {
          "index": 0
        },
        "metallicFactor": 0.0,
        "roughnessFactor": 0.6
      }
    }
  ],
  "meshes": [
    {
      "name": "Object_0",
      "primitives": [
        {
          "attributes": {
            "NORMAL": 1,
            "POSITION": 0,
            "TEXCOORD_0": 2
          },
          "indices": 3,
          "material": 0,
          "mode": 4
        }
      ]
    }
  ],
  "nodes": [
    {
      "children": [
        1
      ],
      "matrix": [
        1.0,
        0.0,
        0.0,
        0.0,
        0.0,
        2.220446049250313e-16,
        -1.0,
        0.0,
        0.0,
        1.0,
        2.220446049250313e-16,
        0.0,
        0.0,
        0.0,
        0.0,
        1.0
      ],
      "name": "Sketchfab_model"
    },
    {
      "children": [
        2
      ],
      "name": "asd.obj.cleaner.materialmerger.gles"
    },
    {
      "mesh": 0,
      "name": "Object_2"
    }
  ],
  "samplers": [
    {
      "magFilter": 9729,
      "minFilter": 9987,
      "wrapS": 10497,
      "wrapT": 10497
    }
  ],
  "scene": 0,
  "scenes": [
    {
      "name": "Sketchfab_Scene",
      "nodes": [
        0
      ]
    }
  ],
  "textures": [
    {
      "sampler": 0,
      "source": 0
    }
  ]
}
